<?xml version="1.0" encoding="UTF-8"?>
<svg version="1.1" xmlns="http://www.w3.org/2000/svg" width="500" height="500">
<path d="M0 0 C12.42822086 7.10184049 12.42822086 7.10184049 17 11 C17 11.66 17 12.32 17 13 C17.56589844 13.27585937 18.13179687 13.55171875 18.71484375 13.8359375 C45.39609135 27.42741064 67.11033876 50.98153969 77.19921875 79.375 C78.71494055 84.3334951 79.96642407 89.14234659 80.44921875 94.30859375 C81.17046859 103.06019736 81.17046859 103.06019736 85.90234375 110.125 C88.09821907 111.8917601 90.38467754 113.42980919 92.7734375 114.921875 C97.32909043 117.85602434 100.77614087 121.62114389 104.3125 125.6875 C104.82425781 126.26886719 105.33601563 126.85023438 105.86328125 127.44921875 C107 129 107 129 107 131 C107.66 131 108.32 131 109 131 C110.47265625 133.046875 110.47265625 133.046875 112.0625 135.75 C112.58972656 136.63171875 113.11695313 137.5134375 113.66015625 138.421875 C117.28209097 145.39119545 117.1451519 154.38827413 115.28125 161.89453125 C114.33511931 164.3781243 113.27300701 166.66825448 112 169 C111.66097656 169.62261719 111.32195312 170.24523437 110.97265625 170.88671875 C106.88736806 177.35630325 100.27543237 181.81637842 94 186 C94.11509661 187.41750563 94.24253658 188.83401169 94.375 190.25 C94.47941406 191.43335938 94.47941406 191.43335938 94.5859375 192.640625 C95.01507113 195.085877 95.78600638 196.84836903 97 199 C97.66 199 98.32 199 99 199 C99.96608323 200.85014053 100.9224907 202.70533473 101.875 204.5625 C102.40867187 205.59503906 102.94234375 206.62757813 103.4921875 207.69140625 C109.64226298 221.18652006 108.6711631 238.74191271 104.265625 252.703125 C101.09560135 260.96084093 97.2702429 269.57866691 91 276 C90.34 276 89.68 276 89 276 C88.62875 276.86625 88.62875 276.86625 88.25 277.75 C86.81700012 280.32939979 85.21575324 282.06121592 83 284 C82.34 284 81.68 284 81 284 C81 284.66 81 285.32 81 286 C79.11498102 287.52017659 77.249747 288.89484363 75.25 290.25 C74.65872314 290.65114014 74.06744629 291.05228027 73.45825195 291.46557617 C55.37190788 303.50785171 37.53436367 307.44275886 16.125 303.375 C-10.18224661 297.93486746 -37.33472297 282.79864637 -54.5 261.7890625 C-57.7659061 257.56167185 -57.7659061 257.56167185 -62.49169922 255.53344727 C-63.41998535 255.54432373 -64.34827148 255.5552002 -65.3046875 255.56640625 C-66.87597412 255.55758423 -66.87597412 255.55758423 -68.47900391 255.54858398 C-69.59968262 255.55317627 -70.72036133 255.55776855 -71.875 255.5625 C-99.46867223 255.0422631 -123.17361717 246.921463 -142.64453125 226.76953125 C-156.40995863 210.58431067 -161.2027574 190.85834545 -160 170 C-159.94682617 169.05946777 -159.89365234 168.11893555 -159.83886719 167.14990234 C-158.20684948 139.9872691 -155.86593704 109.77640029 -136.1171875 88.875 C-130.15651899 83.59617918 -123.90534418 81.02035006 -116.015625 80.68359375 C-115.08105469 80.64169922 -114.14648438 80.59980469 -113.18359375 80.55664062 C-112.21550781 80.51732422 -111.24742187 80.47800781 -110.25 80.4375 C-109.26644531 80.39431641 -108.28289062 80.35113281 -107.26953125 80.30664062 C-104.84648725 80.20077948 -102.4233446 80.09869829 -100 80 C-99.76925781 79.17757812 -99.53851563 78.35515625 -99.30078125 77.5078125 C-94.99052898 62.75414268 -88.59219531 49.29485683 -75 41 C-74.05125 40.57460937 -73.1025 40.14921875 -72.125 39.7109375 C-68.44997643 37.69886209 -65.93567352 35.09572606 -63.125 32.0625 C-54.5512069 23.17362314 -44.89997922 15.28627832 -33.8125 9.75 C-29.31326783 7.48017778 -27.31623613 5.18418856 -24.98046875 0.765625 C-19.54801494 -9.0171205 -7.65848713 -3.72346335 0 0 Z M-20 16 C-22.97637097 21.95274195 -22.23304615 30.46176086 -22 37 C-22 37.94875 -22 38.8975 -22 39.875 C-21.10416667 42.36458333 -21.10416667 42.36458333 -17.8125 43.5 C-16.21338713 44.01593481 -14.60829334 44.51343734 -13 45 C14.01013648 53.66868073 38.91406434 72.57792169 56.7109375 94.58984375 C58.14050119 96.26690415 58.14050119 96.26690415 61 98 C61.99 97.67 62.98 97.34 64 97 C41.94444134 51.30576323 41.94444134 51.30576323 5.20703125 19.9140625 C-3.09950149 17.5465489 -11.3275306 15.77762899 -20 16 Z M-38.625 24 C-39.1519043 24.40283203 -39.67880859 24.80566406 -40.22167969 25.22070312 C-45.0002513 28.91520677 -49.70432767 32.7477183 -54 37 C-54 37.33 -54 37.66 -54 38 C-52.75863281 38.13277344 -51.51726562 38.26554687 -50.23828125 38.40234375 C-48.59634139 38.58061151 -46.95441501 38.75900346 -45.3125 38.9375 C-44.49587891 39.02451172 -43.67925781 39.11152344 -42.83789062 39.20117188 C-38.84549781 39.63758728 -34.92347148 40.11302376 -31 41 C-29.82573736 38.65147472 -29.88491827 37.26225935 -29.90234375 34.6484375 C-29.90556641 33.79765625 -29.90878906 32.946875 -29.91210938 32.0703125 C-29.92048828 31.18085938 -29.92886719 30.29140625 -29.9375 29.375 C-29.94201172 28.4778125 -29.94652344 27.580625 -29.95117188 26.65625 C-29.96297409 24.43743352 -29.97943845 22.21874982 -30 20 C-34.04927627 20 -35.42795136 21.55471215 -38.625 24 Z M44 46 C47.37470341 52.4249161 51.21803458 58.41871949 55.328125 64.3984375 C57 67 57 67 58 70 C58.66 70 59.32 70 60 70 C60.226875 70.78375 60.45375 71.5675 60.6875 72.375 C63.37442834 80.85036995 63.37442834 80.85036995 69 87 C65.61942135 72.02886599 56.34250289 57.25741661 46 46 C45.34 46 44.68 46 44 46 Z M-67.203125 51.07421875 C-72.42878916 57.74591593 -77.21761837 64.61140221 -81.8359375 71.71484375 C-84 75 -84 75 -85.7890625 77.25390625 C-87.28493947 79.05671382 -87.28493947 79.05671382 -87 82 C-86.38181396 82.06469482 -85.76362793 82.12938965 -85.12670898 82.19604492 C-64.71704657 84.40275088 -64.71704657 84.40275088 -56.4375 87.75 C-48.33375837 90.78890311 -40.81432369 89.9733962 -32.30078125 89.33203125 C-25.78863516 88.85159829 -19.49003688 89.28011536 -13 90 C-14.03319982 87.87511736 -15.11039523 85.80980099 -16.296875 83.765625 C-19.45690999 78.29502679 -21.99259569 72.78372102 -24.1875 66.875 C-24.57204346 65.84560303 -24.57204346 65.84560303 -24.96435547 64.79541016 C-26.31433583 61.10581886 -27.41157351 57.42961416 -28.375 53.625 C-29.65331927 49.66905941 -29.65331927 49.66905941 -33.5625 48.5 C-35.03617365 48.29024353 -36.51682587 48.12612025 -38 48 C-39.16789062 47.84144531 -39.16789062 47.84144531 -40.359375 47.6796875 C-54.67064645 45.62212079 -54.67064645 45.62212079 -67.203125 51.07421875 Z M-19 52 C-17.04464506 65.62700972 -9.79493709 77.28343162 -3 89 C-2.44876465 88.98428955 -1.8975293 88.9685791 -1.32958984 88.95239258 C13.06252358 88.60082271 26.79938726 89.65882912 41 92 C41 91.34 41 90.68 41 90 C40.34 90 39.68 90 39 90 C38.67 89.01 38.34 88.02 38 87 C34.53515506 83.76267771 30.73621358 80.91674666 27 78 C26.05253906 77.24976563 25.10507812 76.49953125 24.12890625 75.7265625 C11.19976908 65.72709413 -3.24739224 56.68012259 -19 52 Z M-92 92 C-96.04910522 96.04910522 -94.40992829 109.67383223 -94.60546875 115.13085938 C-94.64285156 116.07123047 -94.68023437 117.01160156 -94.71875 117.98046875 C-94.74904297 118.82504639 -94.77933594 119.66962402 -94.81054688 120.53979492 C-95.00699411 123.09082431 -95.44913227 125.50353214 -96 128 C-92.09628463 126.69876154 -91.1829398 124.88284282 -88.8125 121.5625 C-88.09707031 120.57378906 -87.38164062 119.58507812 -86.64453125 118.56640625 C-84.82015788 116.22736072 -84.82015788 116.22736072 -85 114 C-84.01 113.67 -83.02 113.34 -82 113 C-80.81312298 111.54937253 -79.62923225 110.09599342 -78.47265625 108.62109375 C-76.85786426 106.84353758 -75.18412081 105.63954696 -73.1875 104.3125 C-72.135625 103.549375 -71.08375 102.78625 -70 102 C-70 101.01 -70 100.02 -70 99 C-80.66871612 94.09167603 -80.66871612 94.09167603 -92 92 Z M-129.625 105.3125 C-130.40875 106.199375 -131.1925 107.08625 -132 108 C-132.83144531 108.91845703 -132.83144531 108.91845703 -133.6796875 109.85546875 C-144.74726305 122.89430775 -147.24626315 140.24586951 -146.26025391 156.84667969 C-145.64412154 161.94451035 -143.68171626 166.65236909 -141 171 C-140.34 171.33 -139.68 171.66 -139 172 C-138.78085938 171.04222656 -138.56171875 170.08445312 -138.3359375 169.09765625 C-132.37282053 143.74716059 -121.30270825 121.70743731 -108.27758789 99.26391602 C-107.11525706 97.20423823 -106.03581844 95.12557624 -105 93 C-114.24188674 93 -122.89298046 99.38191136 -129.625 105.3125 Z M-50 100 C-49.67 101.32 -49.34 102.64 -49 104 C-47.35 104 -45.7 104 -44 104 C-44 103.01 -44 102.02 -44 101 C-46.97 100.505 -46.97 100.505 -50 100 Z M-14.5625 101.3125 C-15.70912109 101.67794922 -15.70912109 101.67794922 -16.87890625 102.05078125 C-19.12849999 103.05750552 -20.38691096 104.16015084 -22 106 C-20.56990998 108.18735352 -20.56990998 108.18735352 -18 110 C-11.8234648 110.96862161 -5.16320505 109.72054172 1 109 C-0.75930992 105.22313283 -2.81113316 102.73331444 -6 100 C-9.45366163 100 -11.38424874 100.26383842 -14.5625 101.3125 Z M24 101 C27.34917547 103.85165303 30.49416316 105.83117746 34.5 107.625 C44.07223551 112.28718622 52.56413121 118.94641252 59.73046875 126.8203125 C60.95534687 128.22690347 60.95534687 128.22690347 63 128 C64 130 65 132 66 134 C66.66 134 67.32 134 68 134 C68.66 135.32 69.32 136.64 70 138 C70.495 137.01 70.495 137.01 71 136 C70.1770116 133.63400654 70.1770116 133.63400654 68.875 131 C68.40835938 130.01515625 67.94171875 129.0303125 67.4609375 128.015625 C66.97882813 127.02046875 66.49671875 126.0253125 66 125 C65.57976562 124.10796875 65.15953125 123.2159375 64.7265625 122.296875 C60.00563482 111.95541017 60.00563482 111.95541017 51.02880859 105.69848633 C47.41427259 104.45405943 43.73318017 103.61738868 40 102.8125 C39.23171875 102.63525391 38.4634375 102.45800781 37.671875 102.27539062 C33.0067183 101.2479454 28.77498796 100.81585818 24 101 Z M-63.8125 107.25 C-64.8953125 108.11625 -64.8953125 108.11625 -66 109 C-66 109.66 -66 110.32 -66 111 C-66.556875 111.226875 -67.11375 111.45375 -67.6875 111.6875 C-72.76385754 114.5686759 -76.37992588 119.49733707 -80.15234375 123.875 C-81.41696526 125.32944842 -82.70200643 126.7663228 -84.00390625 128.1875 C-84.64199219 128.88875 -85.28007812 129.59 -85.9375 130.3125 C-86.52402344 130.94800781 -87.11054688 131.58351562 -87.71484375 132.23828125 C-89.29467135 134.04049818 -89.29467135 134.04049818 -89 137 C-82.86755957 136.10485074 -78.97845385 135.13348884 -75 130 C-75 129.34 -75 128.68 -75 128 C-74.34 128 -73.68 128 -73 128 C-71.53587878 126.51322339 -71.53587878 126.51322339 -70 124.5625 C-66.35140215 120.22737951 -62.26955353 116.62488486 -57.94140625 112.98046875 C-55.64998542 111.1051632 -55.64998542 111.1051632 -56 108 C-59.26237319 106.22899741 -60.32625527 105.7005579 -63.8125 107.25 Z M13 107 C13.99 108.485 13.99 108.485 15 110 C15.99 110 16.98 110 18 110 C18 109.34 18 108.68 18 108 C16.35 107.67 14.7 107.34 13 107 Z M-104 109 C-111.85066354 123.31088258 -119.24494609 137.80531056 -124.9375 153.125 C-125.21988525 153.88200195 -125.50227051 154.63900391 -125.79321289 155.41894531 C-128.87254421 163.97652313 -131.25248372 172.84494044 -130 182 C-128.35148243 184.74189834 -128.35148243 184.74189834 -126 186 C-125.34 186 -124.68 186 -124 186 C-123.68546875 184.74445313 -123.3709375 183.48890625 -123.046875 182.1953125 C-119.30806287 167.46674785 -114.92510075 156.28493598 -106 144 C-103.62931088 140.44396632 -103.65534892 137.82006655 -103.5859375 133.70703125 C-103.56657135 133.00100266 -103.5472052 132.29497406 -103.5272522 131.56755066 C-103.46754776 129.31598939 -103.4211086 127.06437672 -103.375 124.8125 C-103.33681171 123.28448311 -103.29775948 121.75648755 -103.2578125 120.22851562 C-103.16185404 116.48585065 -103.07778989 112.7430849 -103 109 C-103.33 109 -103.66 109 -104 109 Z M-32 111 C-32 111.99 -32 112.98 -32 114 C-30.68 114 -29.36 114 -28 114 C-28.33 113.01 -28.66 112.02 -29 111 C-29.99 111 -30.98 111 -32 111 Z M-6 118 C-4.39285732 121.21428536 -0.9838397 121.57584445 2.25 122.6875 C9.09884441 125.12094675 15.25454438 128.11400794 21.5234375 131.77734375 C22.34070313 132.18082031 23.15796875 132.58429688 24 133 C24.66 132.67 25.32 132.34 26 132 C24.21371169 130.32722165 22.4214925 128.66175557 20.625 127 C20.11710937 126.52304688 19.60921875 126.04609375 19.0859375 125.5546875 C16.47137235 122.83882286 16.47137235 122.83882286 13 122 C12.67 121.01 12.34 120.02 12 119 C8.81175432 117.40587716 5.37103338 117.89825265 1.875 117.9375 C0.74384766 117.94426758 0.74384766 117.94426758 -0.41015625 117.95117188 C-2.27347127 117.96296501 -4.13674555 117.98090058 -6 118 Z M25 119 C28.0728207 123.19775997 31.44811235 126.15842413 35.5625 129.25 C36.13935547 129.69601563 36.71621094 130.14203125 37.31054688 130.6015625 C39.85895009 132.54152343 41.93998461 133.97999487 45 135 C45.0825 133.7625 45.165 132.525 45.25 131.25 C45.29640625 130.55390625 45.3428125 129.8578125 45.390625 129.140625 C44.81634702 125.99358166 43.49656043 124.95489234 41 123 C37.85996063 121.66616903 37.85996063 121.66616903 34.4375 120.75 C33.30183594 120.41484375 32.16617188 120.0796875 30.99609375 119.734375 C28.02850569 118.88096812 28.02850569 118.88096812 25 119 Z M82 121 C80.10213732 130.88406885 80.05256616 141.33896685 83 151 C85.58399406 153.58399406 86.78370365 153.3268593 90.375 153.375 C93.77412904 153.28578401 95.68652456 153.15673772 98.75 151.625 C100.80402647 147.31154441 100.13208132 143.54842142 99 139 C96.28257268 131.66898498 91.23419015 126.57640925 85 122 C84.01 121.67 83.02 121.34 82 121 Z M-29 126 C-27.02 130.29 -25.04 134.58 -23 139 C-17.06 138.67 -11.12 138.34 -5 138 C-8.91152001 131.48079998 -11.43050874 128.72861672 -18.60546875 126.52734375 C-22.16041052 125.74444466 -25.37187493 125.80210227 -29 126 Z M-55 129 C-56.65 130.65 -58.3 132.3 -60 134 C-57.525 134.495 -57.525 134.495 -55 135 C-54.01 133.35 -53.02 131.7 -52 130 C-52.99 129.67 -53.98 129.34 -55 129 Z M54 134 C52.75947184 135.04449419 52.75947184 135.04449419 52.6328125 137.32421875 C52.74057495 140.17242673 52.74057495 140.17242673 55.1171875 142.01953125 C56.02726563 142.61121094 56.93734375 143.20289063 57.875 143.8125 C58.77992188 144.41707031 59.68484375 145.02164063 60.6171875 145.64453125 C62.83284092 147.16481667 62.83284092 147.16481667 65 147 C63.65843409 142.98935008 61.97314977 140.61296284 58.9375 137.6875 C58.22464844 136.99011719 57.51179687 136.29273438 56.77734375 135.57421875 C55.27094548 133.88949413 55.27094548 133.88949413 54 134 Z M-36 135 C-36 135.66 -36 136.32 -36 137 C-35.34 137 -34.68 137 -34 137 C-34 136.34 -34 135.68 -34 135 C-34.66 135 -35.32 135 -36 135 Z M-68 143 C-68.66 145.31 -69.32 147.62 -70 150 C-66.61725734 151.12758089 -65.23221777 150.81750262 -61.8125 150.0625 C-60.91144531 149.86785156 -60.01039063 149.67320312 -59.08203125 149.47265625 C-58.39496094 149.31667969 -57.70789063 149.16070312 -57 149 C-57 147.02 -57 145.04 -57 143 C-60.63 143 -64.26 143 -68 143 Z M-89.625 146 C-90.85089844 146.556875 -90.85089844 146.556875 -92.1015625 147.125 C-92.72804688 147.41375 -93.35453125 147.7025 -94 148 C-94.0270817 150.72923388 -94.04687847 153.45819637 -94.0625 156.1875 C-94.07506836 157.34088867 -94.07506836 157.34088867 -94.08789062 158.51757812 C-94.10491934 162.48526789 -93.98604115 166.12571234 -93 170 C-92.34 170 -91.68 170 -91 170 C-90.84144531 169.26136719 -90.68289062 168.52273438 -90.51953125 167.76171875 C-89.00415401 161.17275804 -87.00235165 155.33215773 -83.98828125 149.27734375 C-82.80095344 146.95508381 -82.80095344 146.95508381 -83 144 C-85.60526888 144 -87.26036729 144.91902505 -89.625 146 Z M-48 144 C-48.66648747 150.523713 -48.66648747 150.523713 -45.5 156.0625 C-44.675 156.701875 -43.85 157.34125 -43 158 C-41.6050374 154.82963045 -42.08610299 153.77691497 -43.375 150.4375 C-43.91125 149.303125 -44.4475 148.16875 -45 147 C-45.33 146.01 -45.66 145.02 -46 144 C-46.66 144 -47.32 144 -48 144 Z M-11 147 C-10.29875 147.680625 -9.5975 148.36125 -8.875 149.0625 C-3.35292878 154.63150101 0.72601413 159.82241559 4 167 C5.56294972 163.00245552 4.41335735 159.94602477 3.25 155.9375 C2.90453125 154.70902344 2.5590625 153.48054687 2.203125 152.21484375 C0.82566424 148.51958242 0.82566424 148.51958242 -2 146 C-5.11227195 146 -7.94152152 146.45627049 -11 147 Z M10 147 C10.66 149.97 11.32 152.94 12 156 C12.66 155.67 13.32 155.34 14 155 C14.40729228 152.67843403 14.74438677 150.3431213 15 148 C13.35 147.67 11.7 147.34 10 147 Z M24 148 C23.85304688 148.76183594 23.70609375 149.52367187 23.5546875 150.30859375 C22.35953043 155.81043752 21.16516525 160.23131675 17.8125 164.8125 C15.5591631 167.89336509 15.01016934 168.92118764 14.5 172.875 C14.80235949 176.15450649 14.80235949 176.15450649 17 179 C20.56769552 179.73606499 20.56769552 179.73606499 24 180 C28.30879601 174.2773803 32.0491117 168.36383382 35.4375 162.0625 C35.79134766 161.4120874 36.14519531 160.7616748 36.50976562 160.09155273 C38.03788275 157.19607338 39 155.32239201 39 152 C33.91059256 149.94637945 29.45479185 148.56820748 24 148 Z M-21 153 C-21.61654262 156.73827743 -21.50261219 159.49552061 -20 163 C-15.99443558 166.6544529 -8.47240736 172 -3 172 C-5.36959086 164.41730925 -11.32324961 157.26794698 -18 153 C-18.99 153 -19.98 153 -21 153 Z M-104 157 C-107.73072405 164.04875739 -110.15362437 171.30143944 -112.375 178.9375 C-112.64973145 179.86135498 -112.92446289 180.78520996 -113.20751953 181.73706055 C-113.45614746 182.616604 -113.70477539 183.49614746 -113.9609375 184.40234375 C-114.18571777 185.19116943 -114.41049805 185.97999512 -114.64208984 186.79272461 C-115.04479729 189.2762703 -114.97975956 190.682669 -114 193 C-111.41805645 194.5621348 -108.97231155 195.86449307 -106.25 197.125 C-105.17492187 197.64513672 -105.17492187 197.64513672 -104.078125 198.17578125 C-100.43588155 199.92325467 -96.77590859 201.55801916 -93 203 C-93.40479621 200.16642652 -93.83481515 199.14969877 -96 197.1875 C-99.25571864 193.62655774 -99.06347829 189.71391388 -98.890625 185.046875 C-98.86990954 179.47959479 -100.04005327 174.02706163 -101 168.5625 C-101.19078125 167.44939453 -101.3815625 166.33628906 -101.578125 165.18945312 C-102.04692365 162.45870097 -102.52101904 159.72898129 -103 157 C-103.33 157 -103.66 157 -104 157 Z M102.86328125 158.953125 C99.4304856 161.40712898 97.36244854 161.58131521 93.1875 161.75 C91.44533203 161.83507812 91.44533203 161.83507812 89.66796875 161.921875 C88.34732422 161.96054687 88.34732422 161.96054687 87 162 C87.20496094 162.60328125 87.40992188 163.2065625 87.62109375 163.828125 C87.89050781 164.62734375 88.15992188 165.4265625 88.4375 166.25 C88.70433594 167.03890625 88.97117187 167.8278125 89.24609375 168.640625 C89.91954708 170.74821988 90.49150595 172.84753973 91 175 C97.26263253 172.21660777 101.6207214 167.89072689 105 162 C105.85852776 159.23570364 105.85852776 159.23570364 106 157 C104.6405395 156.88755247 104.6405395 156.88755247 102.86328125 158.953125 Z M-70 161 C-70 161.66 -70 162.32 -70 163 C-68.37585622 163.19477739 -66.75063577 163.38059458 -65.125 163.5625 C-64.22007812 163.66691406 -63.31515625 163.77132812 -62.3828125 163.87890625 C-59.98346943 164.19674852 -59.98346943 164.19674852 -58 163 C-58 161.68 -58 160.36 -58 159 C-59.4370809 158.94577053 -60.87475462 158.90710277 -62.3125 158.875 C-63.51326172 158.84019531 -63.51326172 158.84019531 -64.73828125 158.8046875 C-67.28388576 158.84182678 -67.28388576 158.84182678 -70 161 Z M47 159 C46.71278076 159.51908936 46.42556152 160.03817871 46.12963867 160.57299805 C44.8165026 162.94500387 43.50201321 165.31625711 42.1875 167.6875 C41.50977539 168.91243164 41.50977539 168.91243164 40.81835938 170.16210938 C38.60754657 174.14802736 36.38275829 178.11317502 34 182 C35.14182348 183.35837426 35.14182348 183.35837426 38.1875 183.25 C43.69076329 182.88913028 46.82778763 181.1408433 50.7734375 177.30078125 C51.63195312 176.31464844 52.49046875 175.32851563 53.375 174.3125 C53.82488281 173.80138672 54.27476562 173.29027344 54.73828125 172.76367188 C55.83395249 171.51647163 56.91819929 170.25925023 58 169 C54.50640535 165.40365256 50.88901869 162.16548033 47 159 Z M-35 162 C-38.51943369 167.4257936 -38.73020332 172.7221481 -38 179 C-37.06734139 181.26498072 -37.06734139 181.26498072 -36 183 C-35.34 183 -34.68 183 -34 183 C-33.49309416 180.93918639 -32.99475381 178.87626474 -32.5 176.8125 C-32.2215625 175.66394531 -31.943125 174.51539063 -31.65625 173.33203125 C-31.08504615 170.43181171 -30.86716221 167.93903615 -31 165 C-31.99 164.67 -32.98 164.34 -34 164 C-34.33 163.34 -34.66 162.68 -35 162 Z M-49 169 C-49.97798721 172.79568461 -49.92653069 175.5005999 -49.0625 179.3125 C-48.86785156 180.19550781 -48.67320312 181.07851563 -48.47265625 181.98828125 C-48.31667969 182.65214844 -48.16070312 183.31601562 -48 184 C-47.01 184.33 -46.02 184.66 -45 185 C-45.66 179.72 -46.32 174.44 -47 169 C-47.66 169 -48.32 169 -49 169 Z M-64 172 C-61.525 175.465 -61.525 175.465 -59 179 C-58.34 178.67 -57.68 178.34 -57 178 C-57.66 176.02 -58.32 174.04 -59 172 C-60.65 172 -62.3 172 -64 172 Z M-23 172 C-23.99 175.96 -24.98 179.92 -26 184 C-22.78381144 183.19595286 -20.23130815 182.29662577 -17.25 180.9375 C-16.45078125 180.57527344 -15.6515625 180.21304688 -14.828125 179.83984375 C-14.22484375 179.56269531 -13.6215625 179.28554688 -13 179 C-14.47559669 174.57320993 -16.90057368 174.08567304 -21 172 C-21.66 172 -22.32 172 -23 172 Z M-150 174 C-149.55648744 193.95806532 -144.95740121 209.66893001 -130.75 224.3203125 C-118.53070726 235.87381045 -100.89769886 244.62044249 -83.796875 245.31640625 C-82.8171875 245.35830078 -81.8375 245.40019531 -80.828125 245.44335938 C-79.81234375 245.48267578 -78.7965625 245.52199219 -77.75 245.5625 C-76.203125 245.62727539 -76.203125 245.62727539 -74.625 245.69335938 C-72.0834613 245.79925682 -69.54182804 245.90133443 -67 246 C-70.47029847 240.09719878 -70.47029847 240.09719878 -75 235 C-78.51445561 234.75329988 -78.51445561 234.75329988 -81.08203125 234.9609375 C-93.5329617 235.12761662 -103.73125081 232.01030477 -112.7578125 223.3046875 C-115.58929456 220.2455486 -117.43849921 217.17959679 -119.25 213.4375 C-121.71385919 208.71042163 -124.90512797 206.82702394 -129.59765625 204.484375 C-136.01301037 200.52041636 -137.12342203 194.76793904 -138.875 187.86328125 C-139.71248377 184.89479397 -139.71248377 184.89479397 -142.05859375 183.71875 C-142.69925781 183.4815625 -143.33992188 183.244375 -144 183 C-145.0625 181.1875 -145.0625 181.1875 -146 179 C-146.9601817 177.31008021 -147.95355934 175.63790712 -149 174 C-149.33 174 -149.66 174 -150 174 Z M-88 180 C-89.41703948 185.28169261 -88.49499401 188.19482636 -86 193 C-84.22398157 195.19302257 -84.22398157 195.19302257 -81.93701172 195.22705078 C-80.69588623 195.21134033 -80.69588623 195.21134033 -79.4296875 195.1953125 C-78.53378906 195.18886719 -77.63789063 195.18242187 -76.71484375 195.17578125 C-75.77769531 195.15902344 -74.84054688 195.14226562 -73.875 195.125 C-72.93011719 195.11597656 -71.98523438 195.10695313 -71.01171875 195.09765625 C-68.67422708 195.07404522 -66.33723877 195.04111516 -64 195 C-64 194.34 -64 193.68 -64 193 C-69.85023324 187.26795329 -79.58714073 180 -88 180 Z M68 180 C67.360625 180.721875 66.72125 181.44375 66.0625 182.1875 C62.13381168 186.45781339 56.30649244 188.01112325 51 190 C51 190.33 51 190.66 51 191 C58.85131668 190.65259661 65.64925625 188.71548094 73 186 C73 184.68 73 183.36 73 182 C72.34 181.34 71.68 180.68 71 180 C70.01 180 69.02 180 68 180 Z M-9.5625 186 C-10.57441406 186.556875 -11.58632813 187.11375 -12.62890625 187.6875 C-13.41136719 188.120625 -14.19382812 188.55375 -15 189 C-14.67 189.66 -14.34 190.32 -14 191 C-10.7 191 -7.4 191 -4 191 C-2.64560332 188.29120665 -2.93498549 185.99066732 -3 183 C-5.22684337 183 -7.69221738 184.96811993 -9.5625 186 Z M6 186 C5.67 187.65 5.34 189.3 5 191 C5.66 191 6.32 191 7 191 C7 189.35 7 187.7 7 186 C6.67 186 6.34 186 6 186 Z M81 193 C80.67128906 194.14275391 80.67128906 194.14275391 80.3359375 195.30859375 C77.98846285 202.95220022 75.17820112 209.97690611 69.31640625 215.62109375 C67.76982517 216.923372 67.76982517 216.923372 68 219 C67.42636719 219.26941406 66.85273438 219.53882813 66.26171875 219.81640625 C63.94890124 221.0267408 61.93366709 222.41906892 59.8125 223.9375 C50.78240166 229.95756556 40.50255155 231.18299415 30 233 C34.55145504 237.55145504 43.72852183 236.41873929 49.87768555 236.45092773 C55.61413243 236.33184537 59.7403794 235.71876876 64.26953125 231.921875 C68.0511957 227.72192261 71.20482023 223.38553931 73 218 C74.98 218.33 76.96 218.66 79 219 C79.65134925 217.43979133 80.29582964 215.87671421 80.9375 214.3125 C81.29714844 213.44238281 81.65679687 212.57226562 82.02734375 211.67578125 C83.5339846 207.53100621 84.13994045 203.71246283 84.125 199.3125 C84.12757813 198.54550781 84.13015625 197.77851563 84.1328125 196.98828125 C84.12368933 194.92520664 84.12368933 194.92520664 83 193 C82.34 193 81.68 193 81 193 Z M68 196 C66.92105469 196.27714844 65.84210938 196.55429687 64.73046875 196.83984375 C56.47336041 198.86619082 48.57413981 200.29589709 40.0625 200.5625 C33.81598827 200.75926039 28.21695179 201.28005492 22.234375 203.27734375 C20 204 20 204 17.890625 204.25390625 C15.72987467 204.43004826 15.72987467 204.43004826 13 206 C11.84982275 208.70137416 11.18994142 211.30048952 10.60546875 214.17578125 C10.00900996 216.95797291 9.12551683 219.39279013 8 222 C27.06357679 222.974842 47.79658121 217.96036871 63 206 C65.42066275 203.7509168 67.09969341 201.7448873 69 199 C68.505 197.515 68.505 197.515 68 196 Z M-34 201 C-34.33 202.32 -34.66 203.64 -35 205 C-31.82253232 208.06208478 -28.94173972 210.81493252 -24.41796875 211.24609375 C-20.02420701 210.83109077 -15.97652895 209.98826447 -12 208 C-12 207.67 -12 207.34 -12 207 C-12.56847656 206.89042969 -13.13695312 206.78085937 -13.72265625 206.66796875 C-17.54606684 205.88286107 -21.12830405 205.06547304 -24.6875 203.4375 C-27.86061111 202.06048952 -30.58292496 201.41671647 -34 201 Z M-61.5871582 203.09179688 C-62.48265381 203.13369141 -63.37814941 203.17558594 -64.30078125 203.21875 C-65.76547852 203.28642578 -65.76547852 203.28642578 -67.25976562 203.35546875 C-68.26716797 203.40316406 -69.27457031 203.45085937 -70.3125 203.5 C-71.33923828 203.54769531 -72.36597656 203.59539062 -73.42382812 203.64453125 C-75.94926854 203.76199359 -78.4746545 203.88051719 -81 204 C-80.67 204.99 -80.34 205.98 -80 207 C-76.8148163 207.67806317 -73.62654387 208.34035151 -70.4375 209 C-69.54224609 209.19078125 -68.64699219 209.3815625 -67.72460938 209.578125 C-62.75841943 210.59683063 -58.09706223 211.41983524 -53 211 C-52.01 210.34 -51.02 209.68 -50 209 C-50 208.01 -50 207.02 -50 206 C-52.09833054 203.90166946 -53.31716078 203.02825045 -56.31323242 202.90429688 C-58.07120344 202.96691611 -59.82917854 203.0294207 -61.5871582 203.09179688 Z M91 209 C90.92523438 209.58265625 90.85046875 210.1653125 90.7734375 210.765625 C89.05988728 221.45011463 84.86769214 230.51663973 76.34765625 237.38671875 C56.54411674 250.99547385 29.83674021 247.42442868 7.32421875 245.53515625 C6.29280762 245.45120605 5.26139648 245.36725586 4.19873047 245.28076172 C1.96611579 245.08479875 -0.2640874 244.86017436 -2.49169922 244.61376953 C-3.63268066 244.49759277 -4.77366211 244.38141602 -5.94921875 244.26171875 C-7.49162231 244.08902466 -7.49162231 244.08902466 -9.06518555 243.9128418 C-13.54732514 244.04595251 -16.47083562 246.1037805 -20.1875 248.4375 C-25.12522608 251.18068116 -30.4904356 251.99644846 -36 253 C-37.07894531 253.20496094 -38.15789062 253.40992188 -39.26953125 253.62109375 C-41.84349048 254.10020041 -44.4190565 254.56036033 -47 255 C-42.72980407 260.63469531 -37.54376445 264.68436744 -32 269 C-31.14970215 269.67071533 -31.14970215 269.67071533 -30.28222656 270.35498047 C-10.24918867 286.06057347 14.96591705 297.70731995 41 295 C46.22024149 293.94276625 51.09043099 292.04565375 56 290 C56.77859375 289.68933594 57.5571875 289.37867188 58.359375 289.05859375 C64.28748657 286.41465599 69.05756525 282.13123987 74 278 C75.010625 277.236875 76.02125 276.47375 77.0625 275.6875 C91.54160669 262.44065771 97.17676374 246.54068446 98.19140625 227.38671875 C97.98321176 223.70295096 97.2080659 220.68942565 96.0625 217.1875 C95.52302734 215.50720703 95.52302734 215.50720703 94.97265625 213.79296875 C94.09787209 211.0889296 94.09787209 211.0889296 93 209 C92.34 209 91.68 209 91 209 Z M-6.625 215 C-7.81351563 215.556875 -9.00203125 216.11375 -10.2265625 216.6875 C-11.14179688 217.120625 -12.05703125 217.55375 -13 218 C-12.67 218.66 -12.34 219.32 -12 220 C-9.41394668 220.4683265 -9.41394668 220.4683265 -6.4375 220.625 C-5.42558594 220.69976562 -4.41367187 220.77453125 -3.37109375 220.8515625 C-2.19740234 220.92503906 -2.19740234 220.92503906 -1 221 C-0.01 218.03 0.98 215.06 2 212 C-1.22452084 212 -3.73453013 213.63977889 -6.625 215 Z M-105 217 C-103.5959783 221.21206509 -101.21503495 221.85520016 -97.41796875 223.859375 C-92.90452999 225.98849312 -89.05058745 227 -84 227 C-84.33 226.01 -84.66 225.02 -85 224 C-87.24743756 222.84979475 -87.24743756 222.84979475 -90 222 C-90.98613281 221.66484375 -91.97226563 221.3296875 -92.98828125 220.984375 C-93.98214844 220.65953125 -94.97601563 220.3346875 -96 220 C-96.90105469 219.69578125 -97.80210937 219.3915625 -98.73046875 219.078125 C-100.81704403 218.37485956 -102.90650319 217.68232489 -105 217 Z M-38 229 C-38 229.66 -38 230.32 -38 231 C-28.83100739 233.10435896 -20.45617311 234.47545004 -11 234 C-11.33 232.68 -11.66 231.36 -12 230 C-20.68679101 229.28038418 -29.28299826 228.85631316 -38 229 Z M-65 231 C-65 235.06681731 -63.43814099 236.46058286 -60.9375 239.625 C-59.80634766 241.09839844 -59.80634766 241.09839844 -58.65234375 242.6015625 C-55.30602115 245.62754494 -53.4728959 245.86288163 -49 246 C-46.26307056 245.81430862 -43.64347507 245.56597606 -40.9375 245.1875 C-40.25623047 245.10435547 -39.57496094 245.02121094 -38.87304688 244.93554688 C-34.71611779 244.38847744 -30.92973961 243.45296145 -27 242 C-29.24159335 239.75840665 -29.98563982 239.62728515 -33.0078125 239.10546875 C-33.82282227 238.9569043 -34.63783203 238.80833984 -35.47753906 238.65527344 C-36.35120117 238.5009082 -37.22486328 238.34654297 -38.125 238.1875 C-47.34697373 236.46610947 -56.12818098 234.02335732 -65 231 Z " fill="#0F0F0F" transform="translate(271,99)"/>
<path d="M0 0 C6.15234375 0.5859375 6.15234375 0.5859375 8 1 C8.33 1.66 8.66 2.32 9 3 C5.7 3 2.4 3 -1 3 C-0.67 2.01 -0.34 1.02 0 0 Z " fill="#7F7F7F" transform="translate(254,104)"/>
</svg>
